<svg xmlns="http://www.w3.org/2000/svg" width="68.0" height="100.0" viewBox="0.0 0.0 68.0 100.0" version="1.1">
    <title>Fill 1</title>
    <g id="Page-1" stroke="none" stroke-width="1" fill="none" fill-rule="evenodd">
        <g id="AAI" transform="translate(-829.000000, -715.000000)" fill="#FFD041">
            <g id="Group-3" transform="translate(736.000000, 710.300245)">
                <path d="M75.4526177,64.0889564 C75.8514631,64.1825339 76.2913914,64.1979399 76.6428775,64.3816713 C83.1157,67.7618723 90.1237399,69.2613943 97.2995346,69.3840721 C124.414179,69.8485359 148.940036,62.1255412 170.445738,45.4134029 C173.012842,43.4180344 175.189659,40.9199723 177.546785,38.6552833 C177.421824,38.4395986 177.296864,38.2233433 177.171904,38.0076587 C176.367937,38.2484495 175.557693,38.4721225 174.760002,38.7328841 C172.412006,39.5014747 170.07314,40.2980244 167.720579,41.0529208 C167.118602,41.2463523 166.46356,41.4763018 165.864436,41.4095423 C165.409101,41.3587594 164.776312,40.9422255 164.63994,40.5450918 C164.504139,40.1502405 164.7455,39.4090384 165.080439,39.1197471 C165.612803,38.659848 166.3386,38.3882451 167.02103,38.1434601 C171.327877,36.5982906 175.644994,35.0805096 179.960969,33.5610168 C180.391197,33.4098093 180.833408,33.2671607 181.281895,33.196407 C182.99482,32.9259453 183.908912,33.3504675 184.064684,34.9875027 C184.481788,39.3599673 184.71345,43.7512615 184.948535,48.1385616 C185.003312,49.1610667 184.427011,49.9268043 183.296664,49.9245219 C182.194276,49.9222396 181.629387,49.1935906 181.549504,48.1727972 C181.335531,45.4396502 181.184894,42.7019385 181.001163,39.8455431 C180.630276,39.9613738 180.318732,39.9602326 180.185783,40.1137225 C171.784923,49.818962 161.172438,56.3756618 149.593937,61.5184288 C135.387279,67.8280612 120.530143,71.5169538 104.968323,72.0630126 C97.3331997,72.331192 89.7517124,71.7280737 82.5279878,68.9783795 C80.3260641,68.1401764 78.2913246,66.8529155 76.2080846,65.7197151 C75.7795682,65.4869126 75.4777238,65.0224488 75.1176788,64.6646861 C75.2289447,64.4723958 75.3407812,64.2806761 75.4526177,64.0889564" id="Fill-1" transform="translate(130.034893, 52.620917) rotate(-225.000000) translate(-130.034893, -52.620917) " />
            </g>
        </g>
    </g>
</svg>